<svg xmlns="http://www.w3.org/2000/svg" version="1.1" xmlns:xlink="http://www.w3.org/1999/xlink" xmlns:svgjs="http://svgjs.com/svgjs" width="400" height="400" preserveAspectRatio="none" viewBox="0 0 400 400"><g mask="url(&quot;#SvgjsMask1029&quot;)" fill="none"><path d="M462.92 184.21C412.08 188.02 367.5 297.24 287.51 288.21 207.51 279.18 246.43 58.15 199.8-1.43" stroke="rgba(173, 132, 37, 1)" stroke-width="2"></path><path d="M467.03 220.57C407.45 201.31 409.98 45.86 306.22 28.57 202.46 11.28 190.19-48.62 145.41-50.74" stroke="rgba(173, 132, 37, 1)" stroke-width="2"></path><path d="M451.18 299.57C400.86 286.24 396.07 188.51 308.84 147.57 221.61 106.63 272.21 8.76 237.67-21.35" stroke="rgba(173, 132, 37, 1)" stroke-width="2"></path><path d="M418.76 174.16C385.69 173.21 357.5 124.16 296.23 124.16 234.97 124.16 248.27 182.63 173.7 174.16 99.13 165.69 105.31-15.67 51.17-49.24" stroke="rgba(173, 132, 37, 1)" stroke-width="2"></path><path d="M414.5 117.15C358.8 130.77 346.49 287.62 254.17 281.15 161.85 274.68 169.44-8.64 93.84-67.82" stroke="rgba(173, 132, 37, 1)" stroke-width="2"></path></g><defs><mask id="SvgjsMask1029"><rect width="400" height="400" fill="#ffffff"></rect></mask></defs></svg>